<svg xmlns="http://www.w3.org/2000/svg" viewBox="0 0 720 360" role="img" preserveAspectRatio="xMidYMid meet" data-pipeline="render_charts">
<rect width="100%" height="100%" fill="#faf8f4"/>
<style>.title{font:600 16px "Fraunces",Georgia,serif;fill:#1b1b1b;}.subtitle{font:400 11px "Inter",system-ui,sans-serif;fill:#6b6b6b;}.axis{font:400 11px "Inter",system-ui,sans-serif;fill:#6b6b6b;}.axis-label{font:500 11px "Inter",system-ui,sans-serif;fill:#1b1b1b;}.stamp{font:500 10px "Inter",system-ui,sans-serif;fill:#6b6b6b;letter-spacing:.06em;text-transform:uppercase;}.src{font:400 10px "Inter",system-ui,sans-serif;fill:#6b6b6b;}.legend{font:400 11px "Inter",system-ui,sans-serif;fill:#1b1b1b;}</style>
<text class="title" x="64" y="24">NZ labour productivity by sector, index (2010 = 100)</text>
<text class="subtitle" x="64" y="40">Gross value added per hour worked; OECD series starts 2010 for New Zealand</text>
<line x1="64" y1="304.0" x2="696" y2="304.0" stroke="#d8d4cd" stroke-width="1"/>
<text class="axis" x="56" y="308.0" text-anchor="end">0</text>
<line x1="64" y1="262.9" x2="696" y2="262.9" stroke="#d8d4cd" stroke-width="1"/>
<text class="axis" x="56" y="266.9" text-anchor="end">20</text>
<line x1="64" y1="221.8" x2="696" y2="221.8" stroke="#d8d4cd" stroke-width="1"/>
<text class="axis" x="56" y="225.8" text-anchor="end">40</text>
<line x1="64" y1="180.8" x2="696" y2="180.8" stroke="#d8d4cd" stroke-width="1"/>
<text class="axis" x="56" y="184.8" text-anchor="end">60</text>
<line x1="64" y1="139.7" x2="696" y2="139.7" stroke="#d8d4cd" stroke-width="1"/>
<text class="axis" x="56" y="143.7" text-anchor="end">80</text>
<line x1="64" y1="98.6" x2="696" y2="98.6" stroke="#d8d4cd" stroke-width="1"/>
<text class="axis" x="56" y="102.6" text-anchor="end">100</text>
<line x1="64" y1="57.5" x2="696" y2="57.5" stroke="#d8d4cd" stroke-width="1"/>
<text class="axis" x="56" y="61.5" text-anchor="end">120</text>
<text class="axis" x="64.0" y="322" text-anchor="middle">2010</text>
<text class="axis" x="327.3" y="322" text-anchor="middle">2015</text>
<text class="axis" x="590.7" y="322" text-anchor="middle">2020</text>
<text class="axis" x="696.0" y="322" text-anchor="middle">2022</text>
<line x1="64" y1="304" x2="696" y2="304" stroke="#1b1b1b" stroke-width="1"/>
<path d="M64.0,98.6 L116.7,93.0 L169.3,81.1 L222.0,88.5 L274.7,99.3 L327.3,104.1 L380.0,98.1 L432.7,89.1 L485.3,78.6 L538.0,73.4 L590.7,75.2 L643.3,92.7 L696.0,103.3" fill="none" stroke="#b45b2e" stroke-width="2" stroke-linejoin="round"/>
<path d="M64.0,98.6 L116.7,106.1 L169.3,96.9 L222.0,98.0 L274.7,100.2 L327.3,99.8 L380.0,88.3 L432.7,88.9 L485.3,77.8 L538.0,80.5 L590.7,82.1 L643.3,74.3 L696.0,94.9" fill="none" stroke="#2e6f7b" stroke-width="2" stroke-linejoin="round"/>
<path d="M64.0,98.6 L116.7,94.0 L169.3,90.1 L222.0,92.1 L274.7,80.8 L327.3,72.7 L380.0,74.6 L432.7,72.7 L485.3,73.2 L538.0,76.8 L590.7,70.6 L643.3,51.2 L696.0,48.0" fill="none" stroke="#7b5ea3" stroke-width="2" stroke-linejoin="round"/>
<rect x="64" y="324" width="12" height="12" fill="#b45b2e"/>
<text class="legend" x="82" y="334">Construction</text>
<rect x="186" y="324" width="12" height="12" fill="#2e6f7b"/>
<text class="legend" x="204" y="334">Manufacturing</text>
<rect x="315" y="324" width="12" height="12" fill="#7b5ea3"/>
<text class="legend" x="333" y="334">Services (trade, transport, accommodation)</text>
<text class="src" x="64" y="350">Source: OECD Productivity by Industry (DSD_PDB@DF_PDB_ISIC4_I4), gross value added per hour worked</text>
</svg>